<svg height="434pt" viewBox="0 0 434.304 434" width="434pt" fill ="#b3995f" xmlns="http://www.w3.org/2000/svg"><path d="m225.152344 197.960938 52.6875-52.6875h-2.183594c-18.90625.050781-37.066406-7.390626-50.503906-20.6875zm0 0"/><path d="m225.152344 101.960938 10.910156 10.910156c10.480469 10.535156 24.734375 16.441406 39.59375 16.402344h18.183594l32-32h-30.289063c-19.101562.050781-37.429687-7.539063-50.902343-21.082032l-19.496094-19.480468zm0 0"/><path d="m353.152344 92.585938v46.285156c-.039063 14.863281 5.871094 29.121094 16.40625 39.601562l30.792968 30.800782h33.953126l-36.058594-36c-13.558594-13.488282-21.15625-31.839844-21.09375-50.960938v-53.726562zm0 0"/><path d="m225.152344 434.390625 36.046875-36c13.464843-13.558594 31.796875-21.164063 50.90625-21.117187h53.734375l-24-24h-46.289063c-14.855469-.042969-29.109375 5.859374-39.589843 16.390624l-30.808594 30.808594zm0 0"/><path d="m225.152344 377.832031 19.488281-19.480469c13.472656-13.542968 31.804687-21.136718 50.910156-21.078124h30.296875l-32-32h-18.191406c-14.859375-.042969-29.113281 5.863281-39.59375 16.398437l-10.910156 10.914063zm0 0"/><path d="m225.152344 309.960938c13.4375-13.300782 31.597656-20.738282 50.503906-20.6875h2.183594l-52.6875-52.6875zm0 0"/><path d="m377.152344 312.238281c-.050782-19.109375 7.542968-37.445312 21.09375-50.917969l36.058594-36.046874h-33.953126l-30.792968 30.789062c-10.539063 10.480469-16.449219 24.746094-16.40625 39.609375v46.296875l24 24zm0 0"/><path d="m261.199219 36.191406-36.046875-36.039062v33.917968l30.800781 30.792969c10.476563 10.539063 24.738281 16.449219 39.597656 16.410157h46.296875l24-24h-53.734375c-19.105469.050781-37.4375-7.539063-50.914062-21.082032zm0 0"/><path d="m289.152344 277.960938v-2.183594c-.050782-18.910156 7.386718-37.066406 20.6875-50.503906h-73.375zm0 0"/><path d="m358.246094 189.792969c-13.550782-13.472657-21.148438-31.8125-21.09375-50.921875v-30.285156l-32 32v18.183593c-.039063 14.855469 5.867187 29.113281 16.398437 39.589844l10.914063 10.914063h45.261718zm0 0"/><path d="m337.152344 295.671875c-.050782-19.105469 7.546875-37.441406 21.09375-50.910156l19.480468-19.488281h-45.261718l-10.914063 10.910156c-10.53125 10.476562-16.4375 24.734375-16.398437 39.59375v18.183594l32 32zm0 0"/><path d="m236.464844 209.273438h73.375c-13.300782-13.441407-20.738282-31.597657-20.6875-50.503907v-2.183593zm0 0"/><path d="m209.152344 236.585938-52.6875 52.6875h2.183594c18.90625-.050782 37.066406 7.386718 50.503906 20.6875zm0 0"/><path d="m209.152344 332.585938-10.914063-10.914063c-10.476562-10.535156-24.734375-16.441406-39.589843-16.398437h-18.183594l-32 32h30.289062c19.101563-.054688 37.429688 7.535156 50.902344 21.078124l19.496094 19.480469zm0 0"/><path d="m173.105469 398.351562 36.046875 36.039063v-33.917969l-30.800782-30.792968c-10.476562-10.539063-24.738281-16.445313-39.597656-16.40625h-46.289062l-24 24h53.726562c19.105469-.054688 37.4375 7.535156 50.914063 21.078124zm0 0"/><path d="m209.152344 124.585938c-13.4375 13.296874-31.597656 20.738281-50.503906 20.6875h-2.183594l52.6875 52.6875zm0 0"/><path d="m209.152344 56.710938-19.488282 19.480468c-13.472656 13.546875-31.808593 21.136719-50.910156 21.082032h-30.289062l32 32h18.183594c14.855468.039062 29.113281-5.867188 39.589843-16.402344l10.914063-10.910156zm0 0"/><path d="m81.152344 341.960938v-46.289063c.039062-14.863281-5.871094-29.121094-16.410156-39.601563l-30.789063-30.796874h-33.953125l36.054688 36.039062c13.550781 13.476562 21.148437 31.808594 21.097656 50.917969v53.730469zm0 0"/><path d="m209.152344.152344-36.046875 36c-13.464844 13.558594-31.796875 21.164062-50.90625 21.121094h-53.734375l24 24h46.289062c14.855469.039062 29.109375-5.863282 39.589844-16.394532l30.808594-30.808594zm0 0"/><path d="m129.152344 293.960938v-18.183594c.039062-14.859375-5.867188-29.117188-16.398438-39.59375l-10.914062-10.910156h-45.265625l19.480469 19.480468c13.554687 13.472656 21.152343 31.808594 21.097656 50.917969v30.296875zm0 0"/><path d="m197.839844 225.273438h-73.375c13.300781 13.4375 20.738281 31.59375 20.6875 50.503906v2.183594zm0 0"/><path d="m57.152344 122.304688c.050781 19.109374-7.546875 37.445312-21.097656 50.917968l-36.054688 36.050782h33.953125l30.789063-30.792969c10.542968-10.480469 16.449218-24.742188 16.410156-39.609375v-46.285156l-24-24zm0 0"/><path d="m97.152344 138.871094c.050781 19.109375-7.546875 37.441406-21.097656 50.914062l-19.480469 19.488282h45.265625l10.914062-10.914063c10.53125-10.476563 16.4375-24.734375 16.398438-39.589844v-18.183593l-32-32zm0 0"/><path d="m145.152344 156.585938v2.183593c.050781 18.90625-7.386719 37.0625-20.6875 50.503907h73.375zm0 0"/></svg>